<?xml version="1.0" encoding="UTF-8" standalone="no"?>
<!DOCTYPE svg PUBLIC "-//W3C//DTD SVG 1.1//EN" "http://www.w3.org/Graphics/SVG/1.1/DTD/svg11.dtd">
<svg version="1.1" xmlns="http://www.w3.org/2000/svg" xmlns:xlink="http://www.w3.org/1999/xlink" preserveAspectRatio="xMidYMid meet" viewBox="0 0 640 640" width="640" height="640"><defs><path d="M494.25 80.81C481.6 78.58 468.93 76.34 456.27 74.16C424.97 68.78 393.34 58.62 359.59 43.12C351.31 39.31 343.09 35.35 334.87 31.39C334.23 31.08 329.11 28.62 328.47 28.31C327.96 28.06 327.5 27.68 327.03 27.34C326.64 27.04 326.24 26.75 325.84 26.48C325.01 25.9 324.02 25.6 323.02 25.6C322.81 25.6 321.81 25.6 320 25.6C318.65 25.6 317.89 25.6 317.74 25.6C316.93 25.6 316.14 25.79 315.43 26.17C314.91 26.44 310.81 28.6 310.29 28.87C306.65 30.81 303.01 32.74 299.29 34.53C272.93 47.26 244.42 60.04 214.6 67.3C200.25 70.78 185.41 73.54 171.05 76.22C165.64 77.22 160.25 78.22 154.85 79.27C148.94 80.41 142.99 81.4 137.05 82.4C136.25 82.54 129.87 83.62 129.08 83.76C126.67 84.17 124.92 86.26 124.92 88.69C124.92 90.96 124.92 109.06 124.92 111.32C124.92 111.6 124.94 111.87 124.98 112.14C125.01 112.27 125.21 113.34 125.23 113.47C125.35 114.06 125.48 114.64 125.51 115.24C125.58 116.63 126.13 127.72 126.2 129.11C127.06 146.56 127.93 164 128.68 181.46C129.75 206.52 133.01 229.58 138.65 251.97C144.94 276.98 153.26 306.16 167.17 332.98C191.3 379.54 219.35 415.61 252.93 443.26C253.12 443.42 254.67 444.7 254.87 444.86C270.23 457.52 286.12 470.62 304.32 480.34C307.5 482.04 310.98 483.68 315.64 485.63C316.84 486.13 318.22 486.4 319.58 486.4C319.85 486.4 320.13 486.38 320.41 486.36C320.42 486.36 320.44 486.35 320.46 486.35C321.43 486.26 322.29 486.06 323.08 485.72C323.28 485.64 324.94 484.92 325.15 484.83C329.58 482.93 334.17 480.97 338.53 478.5C352.71 470.49 366.5 460.69 380.68 448.55C397.37 434.27 416.57 416.88 432.49 396.22C463.56 355.86 484.49 314.77 496.47 270.61C502.3 249.13 508.5 223.59 510.35 197.01C511.3 183.37 511.96 169.5 512.61 156.09C512.91 149.89 513.21 143.68 513.54 137.48C513.64 135.53 514.16 125.81 515.1 108.3C515.1 96.53 515.1 90 515.1 88.69C515.09 86.26 513.35 84.18 510.95 83.76C507.61 83.17 495.92 81.11 494.25 80.81Z" id="a1btqAUzgE"></path></defs><g><g><g><use xlink:href="#a1btqAUzgE" opacity="1" fill="#000000" fill-opacity="1"></use><g><use xlink:href="#a1btqAUzgE" opacity="1" fill-opacity="0" stroke="#000000" stroke-width="1" stroke-opacity="0"></use></g></g></g></g></svg>