<?xml version="1.0" encoding="UTF-8" standalone="no"?>
<!DOCTYPE svg PUBLIC "-//W3C//DTD SVG 1.1//EN" "http://www.w3.org/Graphics/SVG/1.1/DTD/svg11.dtd">
<svg version="1.1" xmlns="http://www.w3.org/2000/svg" xmlns:xlink="http://www.w3.org/1999/xlink" preserveAspectRatio="xMidYMid meet" viewBox="0 0 640 640" width="640" height="640"><defs><path d="M565.32 67.67C553.1 55.23 533.27 55.23 521.07 67.67C513.4 75.46 510.55 86.31 512.51 96.37C508.58 100.37 488.94 120.36 453.57 156.35L416.66 118.77L398.2 137.55L428.97 168.88L313.65 286.24L198.35 168.88L229.12 137.55L210.67 118.77L173.74 156.35C138.37 120.36 118.72 100.36 114.79 96.36C116.75 86.3 113.88 75.47 106.23 67.66C94.03 55.22 74.19 55.22 61.99 67.66C49.76 80.11 49.76 100.26 61.99 112.71C69.65 120.5 80.29 123.4 90.18 121.43C94.1 125.43 113.75 145.42 149.11 181.41L112.19 219L130.65 237.79L161.43 206.47L276.73 323.83L82.31 521.71L61.98 579.98L119.22 559.3L313.64 361.41L508.06 559.31L565.31 580L544.98 521.73L350.57 323.82L465.87 206.47L496.65 237.8L515.11 219.01L478.19 181.43C513.55 145.44 533.2 125.44 537.12 121.44C547 123.41 557.64 120.51 565.32 112.71C577.52 100.27 577.53 80.1 565.32 67.67Z" id="dxe9UftBO"></path></defs><g><g><g><use xlink:href="#dxe9UftBO" opacity="1" fill="#000000" fill-opacity="1"></use><g><use xlink:href="#dxe9UftBO" opacity="1" fill-opacity="0" stroke="#000000" stroke-width="1" stroke-opacity="0"></use></g></g></g></g></svg>